<?xml version="1.0" encoding="iso-8859-1"?>
<!-- Uploaded to: SVG Repo, www.svgrepo.com, Generator: SVG Repo Mixer Tools -->
<svg fill="#000000" height="800px" width="800px" version="1.1" id="Layer_1" xmlns="http://www.w3.org/2000/svg" xmlns:xlink="http://www.w3.org/1999/xlink" 
	 viewBox="0 0 512 512" xml:space="preserve">
<g>
	<g>
		<path d="M309.986,262.961c-21.617-50.605-43.923-102.863-45.822-161.416h26.041c4.427,0,8.017-3.589,8.017-8.017
			s-3.589-8.017-8.017-8.017h-26.188V67.34h26.188c4.427,0,8.017-3.589,8.017-8.017s-3.589-8.017-8.017-8.017h-26.188v-2.388
			c9.93-3.354,17.102-12.752,17.102-23.8C281.119,11.268,269.851,0,256,0c-13.851,0-25.119,11.268-25.119,25.119
			c0,11.048,7.172,20.446,17.102,23.8v2.388h-26.188c-4.427,0-8.017,3.589-8.017,8.017s3.589,8.017,8.017,8.017h26.188v18.171
			h-26.188c-4.427,0-8.017,3.589-8.017,8.017s3.589,8.017,8.017,8.017h26.041c-1.899,58.553-24.205,110.811-45.822,161.416
			c-20.335,47.604-39.543,92.569-39.543,138.409c0,42.755,13.345,74.07,39.666,93.079C224.687,510.734,249.065,512,256,512
			c6.935,0,31.313-1.266,53.863-17.551c26.32-19.009,39.666-50.325,39.666-93.079C349.528,355.53,330.32,310.565,309.986,262.961z
			 M246.914,25.119c0-5.01,4.076-9.086,9.086-9.086c5.01,0,9.086,4.076,9.086,9.086c0,5.01-4.076,9.086-9.086,9.086
			C250.99,34.205,246.914,30.129,246.914,25.119z M263.745,188.125h-15.49c2.901-9.228,5.518-18.588,7.745-28.112
			C258.228,169.536,260.844,178.898,263.745,188.125z M242.893,204.159h26.214c2.152,6.106,4.398,12.163,6.725,18.171h-39.663
			C238.495,216.322,240.742,210.264,242.893,204.159z M300.476,481.451c-19.13,13.815-40.405,14.516-44.476,14.516
			c-4.07,0-25.346-0.7-44.476-14.516c-21.91-15.824-33.019-42.768-33.019-80.082c0-42.558,18.582-86.058,38.255-132.11
			c4.369-10.226,8.761-20.521,13.02-30.925c0.188,0.013,0.376,0.029,0.568,0.029h51.307c0.191,0,0.379-0.015,0.568-0.029
			c4.26,10.404,8.652,20.699,13.02,30.925c19.671,46.052,38.253,89.552,38.253,132.11
			C333.495,438.684,322.386,465.627,300.476,481.451z"/>
	</g>
</g>
<g>
	<g>
		<path d="M281.653,444.66h-51.307c-4.427,0-8.017,3.589-8.017,8.017c0,4.427,3.589,8.017,8.017,8.017h51.307
			c4.427,0,8.017-3.589,8.017-8.017C289.67,448.249,286.081,444.66,281.653,444.66z"/>
	</g>
</g>
<g>
	<g>
		<path d="M273.102,324.944h-34.205c-4.427,0-8.017,3.589-8.017,8.017s3.589,8.017,8.017,8.017h34.205
			c4.427,0,8.017-3.589,8.017-8.017S277.53,324.944,273.102,324.944z"/>
	</g>
</g>
<g>
	<g>
		<path d="M281.653,256.534h-51.307c-4.427,0-8.017,3.589-8.017,8.017s3.589,8.017,8.017,8.017h51.307
			c4.427,0,8.017-3.589,8.017-8.017S286.081,256.534,281.653,256.534z"/>
	</g>
</g>
<g>
	<g>
		<path d="M281.653,290.739h-51.307c-4.427,0-8.017,3.589-8.017,8.017s3.589,8.017,8.017,8.017h51.307
			c4.427,0,8.017-3.589,8.017-8.017S286.081,290.739,281.653,290.739z"/>
	</g>
</g>
<g>
	<g>
		<path d="M273.102,359.148h-34.205c-4.427,0-8.017,3.589-8.017,8.017c0,4.427,3.589,8.017,8.017,8.017h34.205
			c4.427,0,8.017-3.589,8.017-8.017C281.119,362.738,277.53,359.148,273.102,359.148z"/>
	</g>
</g>
</svg>